<?xml version="1.0" encoding="utf-8"?>
<!-- Generator: Adobe Illustrator 24.3.0, SVG Export Plug-In . SVG Version: 6.00 Build 0)  -->
<svg version="1.1" xmlns="http://www.w3.org/2000/svg" xmlns:xlink="http://www.w3.org/1999/xlink" x="0px" y="0px"
	 viewBox="0 0 500 500" style="enable-background:new 0 0 500 500;" xml:space="preserve">
<style type="text/css">
	.st0{display:none;}
	.st1{display:inline;fill:#EBEBEB;}
	.st2{fill:#263238;}
	.st3{fill:#FE724C;}
	.st4{fill:#FFBE9D;}
	.st5{fill:#EB996E;}
	.st6{fill:#455A64;}
	.st7{opacity:0.7;}
	.st8{opacity:0.4;}
	.st9{fill:#F5F5F5;}
	.st10{fill:#FAFAFA;}
	.st11{fill:#E0E0E0;}
	.st12{fill:#FFFFFF;}
</style>
<g id="Background_Complete">
</g>
<g id="Background_Simple" class="st0">
	<path class="st1" d="M424.21,131.63l-2.43-3.96c-19.52-31.77-54.67-51.01-91.91-49.11c-5.23,0.27-10.45,0.94-15.58,2.02
		c-34.25,7.24-64.05,32.81-76.4,65.57c-7.26,19.26-9.29,41.44-23.08,56.73c-17.94,19.9-48.4,20.52-75.18,19.7
		c-26.78-0.82-57.26-0.12-75.12,19.86c-11.18,12.51-14.74,30.3-13.83,47.06c2.39,44.36,33.69,84.03,73.5,103.74
		c39.81,19.72,86.69,21.48,130.26,12.81C315.47,393.9,373.51,360.54,408.4,309C443.3,257.46,452.13,187.25,424.21,131.63z"/>
</g>
<g id="Table">
	<g>
		<path class="st2" d="M470.5,403.77c0,0.14-98.73,0.26-220.49,0.26c-121.8,0-220.51-0.12-220.51-0.26s98.71-0.26,220.51-0.26
			C371.77,403.51,470.5,403.63,470.5,403.77z"/>
	</g>
</g>
<g id="Character">
	<g>
		<path class="st3" d="M323.92,257.56c-0.4,1.71-8.91,79.19-8.91,79.19l-7.7,10.95l-2.09,16.76l15.97,39.57H202.85
			c0,0-1.88-20.91-1.72-26.5c0.16-5.59,3.01-26.1,3.01-26.1l-0.27-20.82l-4.48-90.79l40.1-12.93c24.23-4.17,59.89,13.96,59.89,13.96
			L323.92,257.56z"/>
		<g>
			<path class="st2" d="M308.54,199.81c5.27-0.33,9.31-4.74,12.22-9.14c2.71-4.12,5.04-8.74,5.06-13.67
				c0.02-4.28-1.69-8.36-3.36-12.29c-1.73-4.05-3.49-8.16-6.2-11.63c-2.72-3.47-6.55-6.29-10.92-6.84"/>
			<g>
				<g>
					<g>
						<g>
							<g>
								<g>
									<g>
										<g>
											<g>
												<g>
													<g>
														<path class="st4" d="M246.94,220.46l0.05-1.3l3.09-75.65l1.71-4.29l37.84-5.23c12.36-0.96,23.02,8.57,23.46,20.97
															c0.49,13.77,0.54,30.6-1.37,40.81c-3.84,20.53-19.72,22.72-19.72,22.72s-0.27,5.38-0.57,13.14
															c-0.22,5.87-5.4,22.78-11.27,22.94c-2.52,0.07-9.4-2.11-12.68-2.59C246.79,248.94,246.94,220.46,246.94,220.46z"/>
													</g>
												</g>
											</g>
										</g>
									</g>
									<g>
										<g>
											<g>
												<g>
													<g>
														<g>
															<path class="st2" d="M306.11,166.94c0.01,1.4-1.16,2.56-2.62,2.6c-1.46,0.04-2.65-1.06-2.66-2.46
																c-0.01-1.4,1.16-2.56,2.62-2.6C304.91,164.44,306.1,165.55,306.11,166.94z"/>
														</g>
													</g>
												</g>
											</g>
										</g>
										<g>
											<g>
												<g>
													<g>
														<g>
															<g>
																<path class="st2" d="M309.21,163.59c-0.34,0.34-2.3-1.2-5.15-1.27c-2.84-0.11-4.97,1.29-5.27,0.94
																	c-0.15-0.16,0.2-0.77,1.13-1.41c0.91-0.63,2.46-1.23,4.23-1.18c1.77,0.06,3.25,0.75,4.08,1.44
																	C309.09,162.81,309.37,163.44,309.21,163.59z"/>
															</g>
														</g>
													</g>
												</g>
											</g>
										</g>
									</g>
									<g>
										<g>
											<g>
												<g>
													<g>
														<g>
															<path class="st2" d="M278.26,166.67c0.01,1.4-1.16,2.56-2.62,2.6c-1.46,0.04-2.65-1.06-2.66-2.46
																c-0.01-1.4,1.16-2.56,2.62-2.6C277.06,164.17,278.25,165.27,278.26,166.67z"/>
														</g>
													</g>
												</g>
											</g>
										</g>
										<g>
											<g>
												<g>
													<g>
														<g>
															<g>
																<path class="st2" d="M281.22,163.35c-0.34,0.34-2.3-1.2-5.15-1.27c-2.84-0.11-4.97,1.29-5.27,0.94
																	c-0.15-0.16,0.2-0.77,1.13-1.41c0.91-0.64,2.46-1.23,4.23-1.18c1.77,0.06,3.25,0.75,4.09,1.44
																	C281.1,162.57,281.38,163.2,281.22,163.35z"/>
															</g>
														</g>
													</g>
												</g>
											</g>
										</g>
									</g>
									<g>
										<g>
											<g>
												<g>
													<g>
														<g>
															<path class="st2" d="M290.96,184.74c-0.01-0.16,1.77-0.42,4.65-0.71c0.73-0.05,1.42-0.18,1.56-0.67
																c0.19-0.52-0.1-1.31-0.43-2.17c-0.63-1.78-1.3-3.64-2-5.59c-2.77-7.96-4.75-14.5-4.43-14.61
																c0.32-0.11,2.83,6.26,5.59,14.22c0.66,1.96,1.3,3.83,1.91,5.62c0.25,0.83,0.7,1.78,0.3,2.86
																c-0.21,0.54-0.76,0.92-1.22,1.03c-0.47,0.13-0.88,0.13-1.24,0.14C292.76,184.94,290.97,184.9,290.96,184.74z"/>
														</g>
													</g>
												</g>
											</g>
										</g>
									</g>
									<g>
										<g>
											<g>
												<g>
													<g>
														<path class="st5" d="M292,218.48c0,0-13.9,0.51-27.42-8.13c0,0,6.31,14.35,27,12.99L292,218.48z"/>
													</g>
												</g>
											</g>
										</g>
									</g>
									<g>
										<g>
											<g>
												<g>
													<g>
														<path class="st5" d="M289.57,191.57c-0.99-1.38-2.76-2.17-4.55-2.03c-1.24,0.1-2.5,0.66-3.28,1.65
															c-0.78,0.98-0.97,2.41-0.32,3.39c0.74,1.1,2.34,1.39,3.71,1.05c1.37-0.35,2.56-1.21,3.7-2.07
															c0.31-0.24,0.63-0.49,0.84-0.82c0.2-0.33,0.25-0.77,0.02-1.06"/>
													</g>
												</g>
											</g>
										</g>
									</g>
									<g>
										<g>
											<g>
												<g>
													<g>
														<g>
															<path class="st2" d="M282.53,186.48c0.46-0.01,0.38,3.08,2.97,5.34c2.58,2.27,5.88,2.02,5.89,2.45
																c0.04,0.19-0.75,0.58-2.14,0.58c-1.36,0.01-3.34-0.48-4.92-1.87c-1.58-1.39-2.22-3.2-2.29-4.47
																C281.96,187.21,282.32,186.46,282.53,186.48z"/>
														</g>
													</g>
												</g>
											</g>
										</g>
									</g>
								</g>
							</g>
						</g>
						<g>
							<g>
								<g>
									<g>
										<g>
											<path class="st2" d="M282.26,152.22c-0.3,0.77-3.13,0.32-6.48,0.63c-3.36,0.24-6.08,1.15-6.5,0.44
												c-0.19-0.34,0.3-1.05,1.41-1.77c1.1-0.72,2.84-1.38,4.85-1.55c2.01-0.16,3.84,0.21,5.04,0.73
												C281.79,151.23,282.39,151.85,282.26,152.22z"/>
										</g>
									</g>
								</g>
							</g>
						</g>
						<g>
							<g>
								<g>
									<g>
										<g>
											<path class="st2" d="M308.39,155.32c-0.52,0.63-2.46-0.09-4.82-0.19c-2.35-0.18-4.37,0.31-4.81-0.37
												c-0.19-0.33,0.14-0.97,1.03-1.56c0.88-0.59,2.33-1.04,3.95-0.95c1.62,0.1,3.01,0.72,3.81,1.41
												C308.36,154.34,308.62,155.01,308.39,155.32z"/>
										</g>
									</g>
								</g>
							</g>
						</g>
					</g>
				</g>
			</g>
			<path class="st2" d="M246.74,166.62c0,0-5.06,2.71-10.39,9.4c-3.28,4.12-5.41,9.44-4.59,14.64c1.14,7.2,7.38,12.33,13.19,16.74
				c3.35,0.49,5.83-3.21,6.36-6.55s0.05-6.95,1.64-9.94c1.42-2.68,4.22-4.32,6.09-6.71c3.48-4.44,3.24-10.69,2.39-16.27
				s0.03-14.02,7.17-21.95C268.6,145.98,251.16,152.81,246.74,166.62z"/>
			<path class="st2" d="M240.56,185.19c3.05-4.33,2.24-10.69-1.22-14.69c-3.46-4-9.08-5.75-14.36-5.3
				c-3.84,0.33-7.73,1.84-10.21,4.79c-2.48,2.95-3.23,7.49-1.17,10.75c1.14,1.8,3.12,3.51,2.67,5.59c-0.44,2.01-2.81,2.77-4.5,3.94
				c-2.95,2.05-4.09,6.19-2.96,9.6c1.13,3.41,4.27,5.96,7.77,6.77c3.5,0.81,7.26-0.02,10.35-1.85c-0.02,3.21,3.44,5.65,6.64,5.38
				c3.19-0.27,5.9-2.59,7.61-5.3c2.42-3.83,3.25-8.49,3.14-13.01c-0.11-4.53-1.09-8.98-2.07-13.4"/>
			<g>
				<path class="st6" d="M245.84,208.38c-0.01,0.01-0.17-0.09-0.47-0.3c-0.34-0.25-0.77-0.56-1.29-0.94
					c-1.11-0.83-2.72-2.04-4.59-3.68c-1.86-1.64-4.01-3.74-5.86-6.5c-1.85-2.74-3.27-6.25-3.42-10.11c-0.06-1.92,0.2-3.82,0.87-5.52
					c0.65-1.71,1.66-3.18,2.79-4.4c2.3-2.42,4.86-3.98,6.88-5.4c2.06-1.38,3.64-2.61,4.65-3.55c0.51-0.46,0.89-0.85,1.14-1.11
					c0.25-0.26,0.4-0.39,0.41-0.38s-0.1,0.17-0.33,0.45c-0.22,0.29-0.58,0.7-1.07,1.19c-0.98,0.99-2.55,2.28-4.58,3.71
					c-2,1.46-4.53,3.04-6.74,5.42c-1.09,1.19-2.06,2.61-2.67,4.25c-0.64,1.63-0.88,3.46-0.82,5.32c0.15,3.74,1.52,7.17,3.3,9.87
					c1.79,2.72,3.88,4.82,5.7,6.49c1.83,1.67,3.4,2.92,4.47,3.8c0.5,0.41,0.91,0.75,1.23,1.02
					C245.71,208.24,245.85,208.37,245.84,208.38z"/>
			</g>
			<g>
				<path class="st6" d="M231.14,182.28c-0.08,0.05-0.61-1.05-1.92-2.46c-1.29-1.4-3.49-3.05-6.33-3.75
					c-2.84-0.69-5.56-0.25-7.35,0.4c-1.81,0.64-2.79,1.38-2.84,1.29c-0.02-0.03,0.2-0.23,0.66-0.55c0.45-0.32,1.14-0.72,2.06-1.09
					c1.81-0.76,4.63-1.29,7.61-0.56c2.97,0.73,5.23,2.51,6.48,4.01c0.64,0.75,1.07,1.43,1.32,1.92
					C231.06,181.98,231.17,182.26,231.14,182.28z"/>
			</g>
			<g>
				<path class="st6" d="M215.09,187.76c-0.06-0.01,0.31-0.99,1.66-1.83c0.66-0.41,1.55-0.75,2.56-0.92
					c1.01-0.18,2.13-0.21,3.29-0.19c2.34,0.06,4.42,0.49,5.88,0.92c1.46,0.44,2.31,0.86,2.29,0.92c-0.03,0.07-0.92-0.22-2.38-0.56
					c-1.46-0.34-3.51-0.7-5.8-0.76c-2.29-0.08-4.37,0.16-5.65,0.91C215.63,186.95,215.16,187.81,215.09,187.76z"/>
			</g>
			<g>
				<path class="st6" d="M211.65,204.1c0-0.09,1.43-0.06,3.67-0.5c2.23-0.43,5.28-1.44,8.13-3.43c2.85-1.99,4.85-4.5,6.02-6.45
					c1.18-1.95,1.65-3.31,1.74-3.28c0.03,0.01-0.05,0.36-0.27,0.97c-0.22,0.61-0.59,1.47-1.15,2.49c-1.11,2.03-3.11,4.65-6.04,6.69
					c-2.93,2.05-6.08,3.03-8.37,3.36c-1.15,0.18-2.09,0.23-2.73,0.22C212.01,204.18,211.65,204.14,211.65,204.1z"/>
			</g>
			<g>
				<path class="st6" d="M232.14,181.96c0.04-0.05,0.61,0.54,1.87,1.23c1.25,0.69,3.29,1.37,5.86,1.29
					c1.28-0.05,2.68-0.27,4.09-0.79c1.41-0.51,2.83-1.31,4.15-2.36c2.67-2.1,4.91-5.2,6.58-8.75c1.67-3.57,2.74-7.19,3.81-10.45
					c1.05-3.27,2.13-6.19,3.31-8.52c1.17-2.34,2.39-4.08,3.33-5.19c0.47-0.56,0.86-0.97,1.14-1.23c0.28-0.26,0.43-0.4,0.44-0.38
					c0.03,0.03-0.53,0.6-1.42,1.74c-0.89,1.14-2.05,2.89-3.16,5.22c-1.13,2.33-2.16,5.23-3.19,8.5c-1.04,3.26-2.1,6.91-3.8,10.53
					c-1.7,3.6-4,6.77-6.75,8.91c-1.37,1.07-2.84,1.88-4.3,2.39c-1.46,0.51-2.91,0.72-4.22,0.75c-2.64,0.04-4.72-0.71-5.97-1.48
					c-0.32-0.18-0.59-0.37-0.81-0.54c-0.23-0.16-0.41-0.31-0.55-0.45C232.27,182.11,232.13,181.97,232.14,181.96z"/>
			</g>
			<g>
				<path class="st6" d="M261.49,163.42c0.05,0.03-0.36,0.6-0.83,1.77c-0.46,1.17-0.85,2.95-1.01,5.19
					c-0.2,2.24-0.12,4.97-0.89,7.92c-0.78,2.93-2.58,5.91-5.25,8.19c-2.65,2.3-5.9,3.6-8.92,3.85c-3.03,0.28-5.77-0.33-7.87-1.21
					c-2.12-0.86-3.62-2-4.56-2.84c-0.47-0.43-0.82-0.78-1.03-1.04c-0.22-0.25-0.33-0.39-0.32-0.4c0.05-0.04,0.5,0.5,1.48,1.29
					c0.97,0.79,2.47,1.85,4.57,2.65c2.07,0.82,4.75,1.37,7.69,1.07c2.93-0.27,6.06-1.53,8.63-3.76c2.59-2.21,4.34-5.09,5.12-7.92
					c0.77-2.85,0.74-5.57,0.98-7.82c0.2-2.26,0.65-4.08,1.19-5.24c0.27-0.58,0.51-1.01,0.7-1.29
					C261.37,163.55,261.48,163.41,261.49,163.42z"/>
			</g>
			<g>
				<path class="st6" d="M320.75,189.33c-0.03-0.04,0.34-0.32,0.87-0.93c0.54-0.6,1.23-1.58,1.75-2.93
					c0.51-1.35,0.84-3.08,0.71-4.99c-0.13-1.91-0.74-3.96-1.71-5.96c-1.98-4-4.71-7.07-6.49-9.42c-0.9-1.18-1.55-2.19-1.95-2.91
					c-0.4-0.72-0.58-1.15-0.55-1.16c0.04-0.02,0.27,0.37,0.73,1.05c0.45,0.69,1.14,1.65,2.06,2.79c1.84,2.27,4.64,5.33,6.67,9.42
					c0.99,2.04,1.61,4.17,1.72,6.16c0.11,1.99-0.28,3.77-0.85,5.16c-0.58,1.39-1.34,2.36-1.94,2.94c-0.3,0.29-0.55,0.5-0.73,0.62
					C320.86,189.29,320.76,189.35,320.75,189.33z"/>
			</g>
			<g>
				<path class="st6" d="M317.79,195.19c-0.1-0.08,1.34-1.12,2.48-3.58c0.55-1.22,0.97-2.79,0.99-4.56c0.04-1.77-0.39-3.7-1.17-5.6
					c-0.77-1.91-1.82-3.58-2.69-5.18c-0.87-1.58-1.62-3.03-2.23-4.25c-0.61-1.22-1.08-2.23-1.38-2.93c-0.3-0.7-0.44-1.1-0.41-1.12
					c0.03-0.02,0.24,0.36,0.59,1.03c0.41,0.77,0.92,1.72,1.52,2.85c0.65,1.2,1.43,2.62,2.32,4.19c0.88,1.56,1.96,3.25,2.75,5.21
					c0.8,1.95,1.24,3.97,1.16,5.81c-0.05,1.84-0.52,3.47-1.13,4.71c-0.6,1.25-1.35,2.11-1.89,2.66c-0.27,0.27-0.5,0.47-0.66,0.59
					C317.89,195.14,317.8,195.2,317.79,195.19z"/>
			</g>
			<g>
				<path class="st3" d="M245.76,169.27c6.85-11.69,16.43-22.56,29.61-25.71c13.18-3.15,26.62-0.97,38.01,6.37v-23.04l-16.45-53.1
					l-12.82-6.76l-30.28,17.3l-7.84,63.87L245.76,169.27z"/>
				<g class="st7">
				</g>
				<g>
					<path class="st2" d="M312.74,127.72c-0.01,0.02-0.26-0.1-0.73-0.34c-0.47-0.23-1.14-0.62-2.04-1.03
						c-1.78-0.87-4.43-2.01-7.86-2.94c-3.42-0.94-7.61-1.66-12.3-1.77c-2.34-0.05-4.81,0.03-7.35,0.27
						c-2.54,0.26-5.17,0.58-7.73,1.41c-5.15,1.64-9.72,4.15-13.58,6.8c-3.87,2.66-6.95,5.6-9.24,8.29
						c-2.32,2.69-3.69,5.24-4.64,6.98c-0.39,0.87-0.7,1.57-0.93,2.09c-0.22,0.48-0.34,0.73-0.35,0.72
						c-0.02-0.01,0.07-0.27,0.26-0.76c0.19-0.49,0.45-1.22,0.85-2.14c0.9-1.78,2.23-4.38,4.54-7.12c2.28-2.75,5.36-5.75,9.25-8.45
						c3.88-2.7,8.47-5.24,13.7-6.9c2.62-0.84,5.29-1.16,7.84-1.42c2.56-0.24,5.04-0.31,7.41-0.25c4.73,0.14,8.95,0.91,12.38,1.9
						c3.44,0.98,6.09,2.19,7.85,3.11c0.9,0.44,1.55,0.86,2.01,1.12C312.51,127.56,312.75,127.7,312.74,127.72z"/>
				</g>
				<g>
					<path class="st2" d="M292.73,121.55c-0.14,0.02-2.29-12.11-4.79-27.1c-2.5-14.99-4.42-27.16-4.28-27.19
						c0.14-0.02,2.29,12.11,4.79,27.1C290.96,109.36,292.87,121.53,292.73,121.55z"/>
				</g>
				<g>
					<path class="st2" d="M272.66,123.74c-0.14,0,0.08-11.52,0.51-25.71c0.42-14.2,0.88-25.7,1.03-25.7
						c0.14,0-0.08,11.52-0.51,25.72C273.27,112.24,272.81,123.75,272.66,123.74z"/>
				</g>
				<g>
					<path class="st2" d="M255.58,133.31c-0.02,0-0.02-0.19-0.01-0.55c0.02-0.42,0.04-0.94,0.07-1.57c0.07-1.36,0.2-3.33,0.39-5.77
						c0.38-4.87,1.04-11.58,1.97-18.97c0.93-7.39,1.95-14.06,2.79-18.87c0.42-2.4,0.78-4.35,1.05-5.68
						c0.13-0.62,0.24-1.13,0.33-1.54c0.08-0.35,0.13-0.53,0.15-0.53c0.02,0,0,0.19-0.05,0.55c-0.06,0.41-0.14,0.93-0.23,1.55
						c-0.22,1.42-0.52,3.35-0.89,5.71c-0.75,4.82-1.71,11.49-2.64,18.87c-0.93,7.38-1.65,14.08-2.12,18.93
						c-0.23,2.37-0.42,4.32-0.55,5.75c-0.07,0.63-0.12,1.15-0.16,1.56C255.63,133.12,255.6,133.31,255.58,133.31z"/>
				</g>
				<g>
					<path class="st2" d="M295.65,125.44c0.07,0.01,0.04,0.89-0.05,2.32c-0.12,1.62-0.25,3.5-0.41,5.56
						c-0.16,2.07-0.3,3.94-0.42,5.56c-0.12,1.42-0.22,2.3-0.29,2.3c-0.07,0-0.1-0.89-0.08-2.32c0.02-1.43,0.11-3.41,0.27-5.58
						c0.16-2.18,0.37-4.14,0.56-5.56C295.42,126.3,295.58,125.43,295.65,125.44z"/>
				</g>
			</g>
		</g>
		<g>
			<g>
				<path class="st3" d="M200.22,352.85c-1.26-1.84-4.65-3.48-6.87-3.72c-7.68-0.84-14.68,2.47-20.74,7.28l-1.19,2.16
					c-3.26,2.54-6.66,5.45-7.67,9.45c-1.01,4.01-1.3,8.58-1.39,12.72c-0.04,1.89,0.83,4.02,2.59,6.07c1.4,1.64,3.48,2.52,5.62,2.73
					c4.04,0.39,8.15-0.67,11.71-2.63c3.56-1.95,6.6-4.76,9.17-7.9c4.71-5.74,7.96-12.66,9.36-19.95
					C201.22,356.96,201.42,354.62,200.22,352.85z"/>
				<g class="st8">
					<path d="M200.22,352.85c-1.26-1.84-4.65-3.48-6.87-3.72c-7.68-0.84-14.68,2.47-20.74,7.28l-1.19,2.16
						c-3.26,2.54-6.66,5.45-7.67,9.45c-1.01,4.01-1.3,8.58-1.39,12.72c-0.04,1.89,0.83,4.02,2.59,6.07c1.4,1.64,3.48,2.52,5.62,2.73
						c4.04,0.39,8.15-0.67,11.71-2.63c3.56-1.95,6.6-4.76,9.17-7.9c4.71-5.74,7.96-12.66,9.36-19.95
						C201.22,356.96,201.42,354.62,200.22,352.85z"/>
				</g>
			</g>
			<path class="st3" d="M199.39,239.81c-1.21,0.4-61.13,85.34-62.74,90.97c-1.61,5.62-10.39,19.11,2.01,31.74
				c12.36,12.59,24.5,21.73,24.5,21.73c-2.78-21.41,18.29-38.67,32.96-34.18l-11.25-7.63l25.71-34.15"/>
			<path class="st3" d="M323.92,257.56c0,0,9.43,11.78,11.79,19.42c2.01,6.52,12.7,36.68,12.7,36.68l19.47,48.25
				c0,0-2.96,4.27-3.67,7.88c-0.28,1.43-2.76,23.6-8.65,33.04l-31.23-13.96l-3.94-27.95l-5.38-24.17l5.56-64.85L323.92,257.56z"/>
			<path class="st3" d="M236.27,227.55c0,0,8.03-7.39,10.22-8.42c0,0,2.54,8.66,9.97,12.77c7.43,4.1,12.28,8.52,12.28,9.11
				c0,0.59,0,10.75,0,10.75S238.19,243.41,236.27,227.55z"/>
			<path class="st3" d="M241.38,282.24l59.4-3.59l-2.74-33.93l-2.59-5.75l-4.02-7.21c0,0-0.14,3.69-2.81,6.59
				c-4.9,5.33-12.07,6.38-12.07,6.38l-1.17,7.03l-30.08-12.43c0,0-3.93,40.96-3.93,41.94"/>
			<g>
				<path class="st2" d="M276.55,244.72c0.01,0-0.01,0.16-0.05,0.46c-0.05,0.33-0.11,0.78-0.19,1.35c-0.19,1.22-0.46,2.97-0.82,5.25
					l-0.01,0.09l-0.1,0c-5.47,0.17-13.96,0.43-24.43,0.75c-1.31,0.04-2.66,0.08-4.03,0.12c-0.69,0.02-1.38,0.04-2.08,0.06
					c-0.71,0.01-1.38,0.03-2.03,0.26c-1.28,0.44-2.38,1.5-2.82,2.84c-0.24,0.68-0.27,1.36-0.23,2.13c0.01,0.75,0.03,1.51,0.04,2.28
					c0.13,6.12,0.27,12.6,0.41,19.3c0.46,18.78,0.75,35.79,0.66,48.1c-0.03,6.16-0.11,11.14-0.18,14.58
					c-0.05,1.7-0.08,3.02-0.11,3.96c-0.02,0.43-0.03,0.77-0.04,1.03c-0.01,0.23-0.02,0.35-0.03,0.35c-0.01,0-0.02-0.12-0.02-0.35
					c0-0.26-0.01-0.6-0.01-1.03c0-0.94,0.01-2.27,0.01-3.96c0-3.47,0.01-8.44,0.02-14.57c-0.01-12.31-0.36-29.31-0.81-48.09
					c-0.13-6.71-0.27-13.19-0.39-19.3c-0.01-0.76-0.03-1.52-0.04-2.28c-0.04-0.73,0-1.57,0.27-2.29c0.49-1.49,1.71-2.65,3.13-3.13
					c0.71-0.25,1.48-0.27,2.17-0.28c0.7-0.02,1.4-0.03,2.08-0.05c1.37-0.03,2.72-0.07,4.03-0.1c10.48-0.23,18.97-0.42,24.44-0.54
					l-0.11,0.1c0.4-2.26,0.71-4.01,0.93-5.23c0.11-0.57,0.19-1.01,0.25-1.34C276.51,244.87,276.54,244.72,276.55,244.72z"/>
			</g>
			<g>
				<circle class="st2" cx="246.75" cy="264.86" r="2.54"/>
				<g>
					<path class="st2" d="M260.95,262.13c0.02,0.15-2.86,0.53-6.34,1.34c-3.48,0.8-6.23,1.73-6.28,1.58
						c-0.05-0.12,2.65-1.28,6.17-2.09C258.01,262.14,260.94,262,260.95,262.13z"/>
				</g>
				<g>
					<path class="st2" d="M256.69,267.18c-0.05,0.14-2-0.43-4.44-0.93c-2.44-0.52-4.45-0.78-4.44-0.93
						c0.01-0.14,2.07-0.11,4.55,0.42C254.84,266.25,256.74,267.05,256.69,267.18z"/>
				</g>
			</g>
			<g>
				<circle class="st2" cx="246.75" cy="293.58" r="2.54"/>
				<g>
					<path class="st2" d="M260.95,290.86c0.02,0.15-2.86,0.53-6.34,1.34c-3.48,0.8-6.23,1.73-6.28,1.58
						c-0.05-0.12,2.65-1.28,6.17-2.09C258.01,290.87,260.94,290.72,260.95,290.86z"/>
				</g>
				<g>
					<path class="st2" d="M256.69,295.9c-0.05,0.14-2-0.43-4.44-0.93c-2.44-0.52-4.45-0.78-4.44-0.93c0.01-0.14,2.07-0.11,4.55,0.42
						C254.84,294.97,256.74,295.77,256.69,295.9z"/>
				</g>
			</g>
			<g>
				<circle class="st2" cx="246.75" cy="322.31" r="2.54"/>
				<g>
					<path class="st2" d="M260.95,319.58c0.02,0.15-2.86,0.53-6.34,1.34c-3.48,0.8-6.23,1.73-6.28,1.58
						c-0.05-0.12,2.65-1.28,6.17-2.09C258.01,319.59,260.94,319.44,260.95,319.58z"/>
				</g>
				<g>
					<path class="st2" d="M256.69,324.62c-0.05,0.14-2-0.43-4.44-0.93c-2.44-0.52-4.45-0.78-4.44-0.93
						c0.01-0.14,2.07-0.11,4.55,0.42C254.84,323.69,256.74,324.49,256.69,324.62z"/>
				</g>
			</g>
			<g>
				<path class="st2" d="M206.95,316.02c-0.02,0,0.03-0.25,0.14-0.73c0.13-0.52,0.29-1.2,0.5-2.06c0.44-1.78,1.1-4.36,1.85-7.55
					c0.75-3.19,1.58-7.01,2.23-11.3c0.65-4.28,1.07-9.04,0.92-14.03c-0.19-4.99-1.05-9.7-2.38-13.81
					c-1.34-4.11-3.09-7.62-4.94-10.31c-1.84-2.7-3.65-4.66-5.01-5.88c-0.65-0.65-1.23-1.06-1.58-1.39c-0.37-0.32-0.55-0.49-0.54-0.5
					c0.01-0.01,0.22,0.13,0.61,0.42c0.38,0.3,0.98,0.69,1.65,1.32c1.41,1.19,3.28,3.12,5.18,5.82c1.91,2.69,3.72,6.23,5.1,10.37
					c1.37,4.15,2.25,8.91,2.44,13.94c0.16,5.03-0.28,9.82-0.96,14.12c-0.68,4.3-1.55,8.12-2.35,11.31c-0.8,3.19-1.51,5.75-2.01,7.52
					c-0.25,0.84-0.44,1.52-0.6,2.03C207.05,315.78,206.96,316.02,206.95,316.02z"/>
			</g>
			<g>
				<path class="st2" d="M206.02,315.14c-0.04,0.01-0.15-0.47-0.34-1.33c-0.19-0.86-0.42-2.12-0.64-3.69
					c-0.46-3.13-0.85-7.5-0.79-12.33c0.07-4.83,0.59-9.19,1.14-12.31c0.27-1.56,0.53-2.81,0.75-3.67c0.21-0.86,0.34-1.33,0.38-1.32
					c0.03,0.01-0.03,0.49-0.18,1.36c-0.15,0.87-0.36,2.13-0.58,3.69c-0.46,3.12-0.91,7.45-0.98,12.25
					c-0.06,4.8,0.27,9.15,0.63,12.28c0.18,1.56,0.35,2.83,0.48,3.7C206.01,314.65,206.06,315.14,206.02,315.14z"/>
			</g>
			<g>
				<path class="st2" d="M149.15,341.2c-0.01-0.05,0.56-0.15,1.55-0.39c0.99-0.27,2.39-0.78,4.02-1.62
					c1.64-0.83,3.49-2.01,5.59-3.27c2.11-1.21,4.52-2.59,7.38-3.07c2.86-0.55,5.67,0.18,7.86,1.29c2.23,1.11,3.91,2.6,5.3,3.82
					c1.37,1.25,2.37,2.39,3.03,3.18c0.66,0.8,0.99,1.26,0.97,1.29c-0.03,0.02-0.42-0.4-1.12-1.15c-0.71-0.75-1.73-1.83-3.12-3.04
					c-1.4-1.18-3.09-2.61-5.26-3.66c-2.15-1.05-4.83-1.73-7.56-1.2c-2.74,0.45-5.12,1.78-7.23,2.97c-2.11,1.22-3.99,2.38-5.67,3.18
					c-1.67,0.81-3.12,1.27-4.14,1.49c-0.51,0.11-0.91,0.14-1.18,0.18C149.29,341.21,149.15,341.21,149.15,341.2z"/>
			</g>
			<g>
				<path class="st2" d="M169.86,320.39c0.01-0.03,0.35,0.1,0.95,0.37c0.3,0.13,0.67,0.3,1.07,0.54c0.4,0.23,0.88,0.47,1.36,0.82
					c0.99,0.63,2.1,1.51,3.23,2.58c1.11,1.09,2.24,2.39,3.24,3.89c0.99,1.51,1.75,3.05,2.33,4.49c0.55,1.46,0.93,2.81,1.13,3.97
					c0.13,0.57,0.17,1.11,0.23,1.57c0.06,0.46,0.08,0.86,0.08,1.19c0.01,0.66,0,1.02-0.03,1.02c-0.1,0.01-0.14-1.45-0.64-3.71
					c-0.24-1.13-0.65-2.45-1.22-3.87c-0.59-1.41-1.35-2.91-2.32-4.38c-0.99-1.46-2.08-2.74-3.14-3.83c-1.09-1.07-2.15-1.96-3.1-2.62
					C171.14,321.07,169.82,320.48,169.86,320.39z"/>
			</g>
			<g class="st8">
				<path d="M183.01,339.58c-3.51-8.29-12.06-14.19-21.06-14.54c-1.21-0.05-2.47,0.01-3.56,0.55c-1.08,0.54-1.95,1.69-1.82,2.9
					c0.06,0.59,0.34,1.16,0.28,1.75c-0.15,1.34-1.79,1.81-3.09,2.18c-2.5,0.71-4.77,2.19-6.43,4.19c-0.87,1.04-1.57,2.62-0.73,3.69
					c0.68,0.88,2,0.88,3.1,0.69c4.12-0.72,7.79-2.94,11.56-4.76c3.77-1.82,8-3.29,12.08-2.37c4.51,1.02,7.86,4.7,10.89,8.19"/>
			</g>
			<g>
				<path class="st2" d="M315.01,336.75c0.01,0.01-0.12,0.16-0.37,0.44c-0.3,0.31-0.68,0.7-1.14,1.18c-0.5,0.51-1.11,1.13-1.87,1.81
					c-0.75,0.68-1.58,1.49-2.56,2.29c-1.92,1.67-4.33,3.54-7.09,5.47c-2.78,1.9-5.94,3.86-9.39,5.67
					c-3.46,1.79-6.87,3.27-10.02,4.47c-3.17,1.17-6.07,2.07-8.54,2.7c-1.23,0.35-2.36,0.57-3.35,0.8c-0.99,0.23-1.84,0.39-2.55,0.5
					c-0.66,0.11-1.19,0.19-1.62,0.26c-0.37,0.05-0.57,0.07-0.57,0.06c0-0.02,0.19-0.07,0.55-0.16c0.42-0.09,0.95-0.21,1.6-0.36
					c0.7-0.14,1.55-0.33,2.52-0.58c0.98-0.25,2.1-0.5,3.32-0.87c2.45-0.67,5.33-1.61,8.47-2.79c3.13-1.22,6.51-2.7,9.95-4.48
					c3.43-1.81,6.57-3.74,9.36-5.61c2.76-1.9,5.18-3.73,7.12-5.36c1-0.79,1.84-1.57,2.6-2.23c0.77-0.65,1.4-1.25,1.92-1.74
					c0.49-0.45,0.89-0.82,1.21-1.11C314.84,336.86,315,336.74,315.01,336.75z"/>
			</g>
			<g>
				<path class="st2" d="M324.32,270.99c0.02,0-0.01,0.24-0.07,0.67c-0.07,0.49-0.17,1.13-0.29,1.91c-0.27,1.72-0.65,4.11-1.11,7.03
					c-0.91,5.94-2.12,14.15-3.37,23.24c-1.22,9.06-2.32,17.27-3.12,23.28c-0.39,2.93-0.71,5.33-0.95,7.05
					c-0.11,0.79-0.21,1.42-0.28,1.92c-0.07,0.44-0.11,0.67-0.13,0.66c-0.02,0-0.01-0.23,0.03-0.68c0.05-0.49,0.11-1.13,0.18-1.93
					c0.19-1.73,0.46-4.13,0.78-7.08c0.69-5.97,1.72-14.21,2.97-23.3c1.25-9.09,2.51-17.3,3.52-23.22c0.52-2.96,0.94-5.36,1.27-7.01
					c0.16-0.78,0.29-1.41,0.39-1.9C324.24,271.21,324.3,270.98,324.32,270.99z"/>
			</g>
			<g>
				<path class="st2" d="M290.48,369.86c-0.03-0.02,0.16-0.36,0.54-0.96c0.38-0.6,0.94-1.45,1.65-2.49
					c1.42-2.08,3.45-4.92,5.79-7.99c2.34-3.06,4.54-5.77,6.17-7.7c0.82-0.96,1.49-1.73,1.96-2.25c0.48-0.52,0.75-0.8,0.78-0.78
					c0.03,0.02-0.2,0.34-0.62,0.91c-0.5,0.65-1.11,1.43-1.83,2.36c-1.56,1.98-3.71,4.72-6.04,7.78c-2.33,3.06-4.4,5.86-5.9,7.88
					c-0.7,0.94-1.3,1.74-1.79,2.39C290.76,369.58,290.51,369.88,290.48,369.86z"/>
			</g>
			<g>
				<path class="st2" d="M354.85,349.04c-0.02,0.04-0.58-0.22-1.6-0.66c-1.02-0.44-2.5-1.07-4.38-1.72
					c-3.73-1.29-9.13-2.73-15.17-2.55c-1.5,0.07-2.95,0.32-4.23,0.87c-1.29,0.54-2.4,1.35-3.33,2.25c-1.86,1.82-2.98,3.93-3.75,5.74
					c-0.77,1.82-1.24,3.37-1.58,4.42c-0.34,1.06-0.53,1.65-0.57,1.64c-0.03-0.01,0.09-0.61,0.37-1.69c0.29-1.08,0.7-2.64,1.43-4.51
					c0.74-1.85,1.85-4.04,3.76-5.95c0.95-0.94,2.11-1.8,3.46-2.38c1.35-0.59,2.87-0.85,4.41-0.92c6.16-0.18,11.59,1.34,15.32,2.73
					c1.87,0.7,3.34,1.39,4.34,1.89c0.5,0.24,0.88,0.46,1.14,0.6C354.73,348.94,354.86,349.03,354.85,349.04z"/>
			</g>
			<g>
				<path class="st2" d="M347.37,333.34c0,0.11-1.57,0.06-4.04,0.48c-1.24,0.2-2.68,0.58-4.24,1.13c-1.55,0.58-3.2,1.33-4.84,2.32
					c-1.62,1.01-3.05,2.14-4.27,3.25c-1.19,1.14-2.19,2.26-2.93,3.26c-1.5,2-2.17,3.42-2.27,3.38c-0.03-0.02,0.12-0.37,0.43-1.01
					c0.15-0.32,0.34-0.71,0.61-1.14c0.26-0.43,0.54-0.94,0.93-1.44c0.72-1.05,1.7-2.21,2.9-3.4c1.22-1.16,2.67-2.32,4.32-3.35
					c1.67-1.01,3.36-1.77,4.95-2.33c1.6-0.53,3.08-0.88,4.34-1.04c0.63-0.11,1.2-0.13,1.71-0.17c0.5-0.05,0.94-0.04,1.29-0.03
					C346.98,333.28,347.37,333.31,347.37,333.34z"/>
			</g>
			<g>
				<path class="st3" d="M355.41,396.71c-0.84-6.53-5.4-12.39-11.41-15.08c-4.76-2.13-11.35-2.62-15.88-0.02
					c-4.53,2.59-10.59,9.06-9.36,14.13l10.39,17.45c5.23,4.01,13,4.16,18.53,0.58C353.21,410.2,356.25,403.24,355.41,396.71z"/>
				<g class="st8">
					<path d="M355.41,396.71c-0.84-6.53-5.4-12.39-11.41-15.08c-4.76-2.13-11.35-2.62-15.88-0.02c-4.53,2.59-10.59,9.06-9.36,14.13
						l10.39,17.45c5.23,4.01,13,4.16,18.53,0.58C353.21,410.2,356.25,403.24,355.41,396.71z"/>
				</g>
			</g>
			<g>
				<path class="st2" d="M352.17,409.43c-0.04-0.02,0.36-0.7,1.02-1.95c0.6-1.27,1.41-3.17,1.79-5.66c0.37-2.47,0.34-5.55-0.76-8.68
					c-0.23-0.8-0.61-1.56-0.95-2.35c-0.42-0.76-0.82-1.55-1.35-2.28c-1.01-1.48-2.24-2.92-3.73-4.11c-1.48-1.21-3.1-2.16-4.77-2.83
					c-1.68-0.64-3.39-1.01-5.04-1.18c-3.31-0.28-6.32,0.26-8.67,1.14c-2.36,0.87-4.12,1.95-5.24,2.8c-1.13,0.85-1.71,1.38-1.74,1.34
					c-0.01-0.01,0.12-0.15,0.39-0.41c0.28-0.25,0.65-0.67,1.23-1.09c1.1-0.91,2.85-2.05,5.24-2.98c2.38-0.94,5.44-1.54,8.84-1.28
					c1.69,0.16,3.45,0.53,5.18,1.18c1.72,0.69,3.39,1.66,4.91,2.91c1.53,1.23,2.79,2.7,3.82,4.23c0.54,0.75,0.95,1.57,1.37,2.35
					c0.35,0.82,0.73,1.6,0.96,2.42c1.11,3.23,1.1,6.38,0.67,8.89c-0.44,2.53-1.31,4.44-1.98,5.69c-0.34,0.63-0.67,1.08-0.86,1.39
					C352.31,409.28,352.19,409.44,352.17,409.43z"/>
			</g>
			<g>
				<path class="st2" d="M323.6,384.89c-0.14,0.02-1.36-6.83-2.72-15.29c-1.36-8.47-2.34-15.35-2.2-15.38
					c0.14-0.02,1.36,6.82,2.72,15.3C322.75,377.99,323.74,384.87,323.6,384.89z"/>
			</g>
			<g class="st8">
				<path d="M316.82,344.92l5.31-0.36c3.44-5.37,9.09-9.27,15.33-10.6c1.46-0.31,2.99-0.48,4.43-0.09c1.44,0.39,2.77,1.45,3.14,2.89
					c0.37,1.44-0.51,3.19-1.98,3.46c2.95,0.75,5.54,2.8,6.95,5.5c0.3,0.57,0.52,1.35,0.06,1.81c-0.3,0.3-0.77,0.33-1.2,0.32
					c-2.45-0.04-4.88-0.55-7.33-0.66c-2.45-0.12-5.05,0.21-7.03,1.65c-1.98,1.44-3.08,3.76-4.03,6.01
					c-3.33,7.88-5.88,16.7-7.4,25.12c-1.22-4.87-1.34-10.04-2.23-14.62C319.57,358.81,318.34,352.11,316.82,344.92"/>
			</g>
			<g class="st8">
				<path d="M201.65,389.08c6.61,7.06,15.54,10.35,25.08,11.91c9.55,1.56,19.3,1.01,28.96,0.46c2.38-0.14,5.21-0.55,6.24-2.7
					c0.73-1.52,0.23-3.33-0.36-4.92c-4.25-11.27-12.68-20.38-20.91-29.17c-3.01-3.22-6.22-6.56-10.43-7.86
					c-4.63-1.42-9.89-0.17-14.28-2.21c-5.27-2.45-7.43-8.67-9.06-14.26c-1.68-5.75-1.68-5.75-3.36-11.5
					c0.74,12.53,0.61,22.6,0.61,22.6s-3.46,23.16-3.03,28.41C201.53,385.1,201.65,389.08,201.65,389.08z"/>
			</g>
			<g>
				<path class="st2" d="M267.48,246.12c-0.01,0.03-0.48-0.07-1.31-0.29c-0.84-0.21-2.04-0.58-3.5-1.1
					c-2.92-1.03-6.86-2.77-10.88-5.26c-4.02-2.5-7.33-5.26-9.54-7.42c-1.11-1.08-1.97-1.99-2.54-2.65
					c-0.57-0.65-0.87-1.02-0.84-1.05c0.03-0.02,0.38,0.3,0.99,0.91c0.6,0.61,1.5,1.48,2.64,2.52c2.27,2.08,5.58,4.77,9.57,7.25
					c3.99,2.47,7.87,4.25,10.74,5.36c1.43,0.56,2.61,0.98,3.43,1.25C267.04,245.92,267.49,246.09,267.48,246.12z"/>
			</g>
			<g>
				<path class="st2" d="M295.36,240.57c0.03,0.02-0.1,0.28-0.38,0.74c-0.26,0.46-0.71,1.1-1.3,1.85c-1.18,1.51-3.07,3.41-5.52,5.01
					c-2.46,1.6-4.97,2.56-6.82,3.02c-0.93,0.24-1.69,0.38-2.22,0.43c-0.53,0.06-0.83,0.08-0.83,0.04c-0.01-0.09,1.15-0.28,2.95-0.83
					c1.8-0.55,4.23-1.54,6.64-3.1c2.4-1.57,4.29-3.39,5.53-4.81C294.64,241.51,295.29,240.52,295.36,240.57z"/>
			</g>
			<g>
				<path class="st2" d="M299.99,246.74c0.12,0.04-0.92,2.7-3.26,5.29c-2.31,2.61-4.85,3.94-4.9,3.82
					c-0.09-0.14,2.26-1.63,4.51-4.17C298.62,249.17,299.85,246.66,299.99,246.74z"/>
			</g>
		</g>
		<g>
			<path class="st4" d="M247.54,365.65c0,0,0.23-0.05,0.63-0.13c2.21-0.43,9.57-1.77,10.76-0.58c1.4,1.4,11.37,11.19,11.37,11.19
				s-1.92,3.15-8.22,0C255.78,372.98,247.54,365.65,247.54,365.65z"/>
			<path class="st2" d="M233.4,345.76L233.4,345.76c2.25-1.5,5.28-0.96,6.88,1.22l30.39,40.31l-7.78,5.68l-30.69-39.91
				C230.41,350.73,230.96,347.39,233.4,345.76z"/>
			<path class="st4" d="M163.91,372.75c0,0,36.09,5.86,41.06,6.26c4.97,0.4,18.69,14.91,22.67,16.3c3.98,1.39,14.71,1.19,14.71,1.19
				s19.49,1.01,20.08,0.01s1.79-0.81,0-4.58c-1.79-3.78-3.98-6.56-3.98-6.56s4.97,6.16,6.36,6.36c1.39,0.2,4.37,0.56,4.18-2.11
				c-0.2-2.66-5.37-13.6-5.37-13.6s-2.19-5.11-6.16-6.23s-21.27-9.48-21.27-9.48h-18.49l-21.58-10.26c0,0-13.06-4.2-25.49,9.51
				c-2.45,2.7-4.22,5.93-5.4,9.37L163.91,372.75z"/>
			<g>
				<path class="st5" d="M267.1,384.25c-0.03,0.01-0.22-0.36-0.54-1.05c-0.35-0.79-0.78-1.78-1.28-2.94
					c-0.54-1.28-1.16-2.76-1.84-4.38c-0.58-1.64-1.53-3.41-3.15-4.6c-0.81-0.59-1.71-1.02-2.59-1.42c-0.88-0.39-1.74-0.78-2.56-1.14
					c-1.63-0.72-3.11-1.34-4.36-1.86c-1.17-0.48-2.15-0.89-2.95-1.23c-0.7-0.29-1.08-0.47-1.06-0.5c0.01-0.03,0.42,0.08,1.14,0.31
					c0.72,0.24,1.75,0.6,3.02,1.07c1.27,0.48,2.77,1.07,4.41,1.76c0.82,0.36,1.69,0.73,2.58,1.12c0.89,0.4,1.82,0.83,2.68,1.46
					c1.74,1.28,2.72,3.16,3.3,4.86c0.64,1.63,1.23,3.12,1.73,4.41c0.45,1.18,0.82,2.18,1.13,2.99
					C267,383.83,267.13,384.23,267.1,384.25z"/>
			</g>
			<g>
				<path class="st5" d="M248.95,374.23c0.04-0.05,0.79,0.49,1.91,1.48c1.12,0.99,2.58,2.44,4.05,4.19
					c1.46,1.75,2.64,3.45,3.42,4.72c0.78,1.27,1.18,2.1,1.12,2.14c-0.07,0.04-0.58-0.72-1.43-1.93c-0.85-1.21-2.06-2.86-3.51-4.58
					c-1.45-1.73-2.86-3.21-3.9-4.25C249.56,374.93,248.9,374.29,248.95,374.23z"/>
			</g>
			<g>
				<path class="st5" d="M259.27,396.79c-0.02,0.03-0.29-0.07-0.76-0.3c-0.47-0.24-1.13-0.62-1.89-1.17
					c-1.54-1.09-3.41-2.92-5.27-5.07c-1.87-2.14-3.54-4.11-4.73-5.54c-1.19-1.44-1.9-2.35-1.84-2.4c0.05-0.05,0.86,0.78,2.12,2.15
					c1.26,1.37,2.97,3.3,4.84,5.44c1.86,2.15,3.64,3.98,5.1,5.12C258.28,396.19,259.31,396.72,259.27,396.79z"/>
			</g>
			<g>
				<path class="st5" d="M248.55,396.77c-0.04,0.06-0.75-0.28-1.86-0.93c-1.11-0.65-2.6-1.61-4.16-2.8
					c-1.56-1.19-2.89-2.36-3.83-3.24c-0.93-0.88-1.47-1.46-1.42-1.52c0.11-0.12,2.48,1.98,5.56,4.34
					C245.94,394.98,248.63,396.64,248.55,396.77z"/>
			</g>
			<g>
				<g>
					<path class="st4" d="M307.76,411.77c0,0-3.17-4.9-3.61-6.65c-0.44-1.75,0-10.08-5.84-8.76v0.6c0.15,0.71,0,17.65,0,17.65
						L307.76,411.77z"/>
					<g>
						<path class="st3" d="M232.93,420.64c0,0-5.4,49.75,52.84,48.3c47.49-1.18,46.65-47.47,46.65-47.47L232.93,420.64z"/>
						<ellipse class="st3" cx="281.81" cy="421.11" rx="54.27" ry="13.12"/>
						<ellipse class="st8" cx="282.62" cy="420.64" rx="49.81" ry="8.29"/>
						<g>
							<path class="st2" d="M334.24,424.86c0,0.01-0.07,0.06-0.22,0.16c-0.18,0.11-0.4,0.25-0.67,0.42
								c-0.59,0.37-1.49,0.88-2.67,1.49c-2.36,1.21-5.92,2.73-10.52,3.94c-4.59,1.24-10.16,2.23-16.38,3.06
								c-6.23,0.77-13.14,1.06-20.38,1c-7.24-0.06-14.13-0.3-20.38-0.85c-6.25-0.55-11.85-1.46-16.46-2.56
								c-4.62-1.08-8.26-2.35-10.72-3.34c-1.24-0.47-2.17-0.92-2.81-1.2c-0.29-0.14-0.53-0.25-0.72-0.34
								c-0.16-0.08-0.24-0.12-0.24-0.13c0-0.01,0.09,0.02,0.26,0.08c0.19,0.08,0.44,0.17,0.74,0.29c0.65,0.25,1.59,0.67,2.84,1.11
								c2.47,0.93,6.12,2.14,10.73,3.17c4.61,1.05,10.19,1.92,16.42,2.44c6.24,0.52,13.12,0.74,20.35,0.81
								c7.22,0.05,14.1-0.22,20.31-0.96c6.2-0.8,11.77-1.75,16.34-2.94c4.58-1.17,8.14-2.62,10.52-3.77
								c1.19-0.58,2.1-1.05,2.71-1.39c0.29-0.15,0.51-0.28,0.7-0.38C334.15,424.89,334.23,424.85,334.24,424.86z"/>
						</g>
					</g>
					<path class="st4" d="M300.99,419.52c0,0,5.94-19.91,7.99-22.56c1.69-2.19,13.66-11.24,17.77-14.32
						c1.02-0.76,2.16-1.32,3.39-1.64c4.07-1.08,8.13-1.79,14.84,1.11c7.15,3.1,9.14,9.86,9.14,9.86l-22.35,13.89l-0.87,9.4
						l-17.99-4.59c0,0,0.23-0.96-0.53-2.74C312.37,407.92,306.67,421.78,300.99,419.52z"/>
					<g>
						<path class="st9" d="M279.42,405.38c-2.27-3.05-4.16-5.89-5.67-8.34c-1.47-2.46-2.57-4.52-3.28-5.95
							c-0.7-1.45-1.11-2.24-1.16-2.22c-0.05,0.02,0.27,0.85,0.88,2.35c0.63,1.49,1.66,3.59,3.08,6.11c1.45,2.5,3.31,5.4,5.56,8.48
							c2.24,3.09,4.87,6.36,7.66,9.76c3.89,4.68,7.5,9.05,10.43,12.88c0.27-0.01,0.54-0.02,0.81-0.04
							c-2.93-3.98-6.61-8.52-10.62-13.35C284.32,411.68,281.69,408.43,279.42,405.38z"/>
						<path class="st9" d="M265.14,391.12c-0.05,0.02,0.3,0.85,0.95,2.32c0.65,1.47,1.59,3.6,2.69,6.26
							c2.22,5.3,5.06,12.73,7.53,21.14c0.78,2.81,1.61,5.54,2.59,8.07c0.26,0,0.54,0,0.8-0.01c-0.99-2.57-1.82-5.35-2.64-8.28
							c-2.49-8.45-5.42-15.88-7.78-21.14c-1.17-2.63-2.2-4.73-2.93-6.17C265.62,391.87,265.18,391.09,265.14,391.12z"/>
						<path class="st9" d="M267.1,388.73c-0.05,0.03,0.34,0.84,1.07,2.29c0.74,1.45,1.82,3.53,3.2,6.09
							c2.75,5.11,6.6,12.16,11.3,19.68c2.71,4.38,5.44,8.4,7.96,11.9c0.28-0.01,0.56-0.02,0.84-0.03
							c-2.54-3.61-5.33-7.76-8.14-12.29c-4.68-7.51-8.6-14.5-11.48-19.54c-1.39-2.43-2.54-4.44-3.41-5.97
							C267.62,389.47,267.15,388.7,267.1,388.73z"/>
						<path class="st9" d="M310.83,422.91c-1.97-4.9-5.28-8.95-8.85-12.15c-3.58-3.23-7.42-5.73-11.01-8.01
							c-3.6-2.27-6.97-4.33-9.91-6.42c-5.88-4.17-9.96-8.42-12.58-11.47c-1.31-1.53-2.28-2.77-2.92-3.61
							c-0.3-0.39-0.54-0.71-0.73-0.96c-0.17-0.21-0.26-0.32-0.27-0.31c-0.01,0.01,0.06,0.13,0.21,0.36c0.18,0.27,0.4,0.6,0.67,1.01
							c0.61,0.88,1.53,2.15,2.82,3.72c2.56,3.13,6.6,7.46,12.49,11.72c2.93,2.13,6.3,4.23,9.88,6.52c3.56,2.3,7.36,4.8,10.87,8
							c3.51,3.17,6.71,7.11,8.63,11.91c0.56,1.35,1.02,2.77,1.33,4.22c0.26-0.03,0.52-0.05,0.78-0.08
							C311.91,425.81,311.41,424.32,310.83,422.91z"/>
						<path class="st9" d="M309.03,426.21c-1.08-2.82-2.84-6-5.34-9.11c-2.49-3.13-5.71-6.13-9.3-8.98
							c-3.59-2.84-7.18-5.31-10.38-7.62c-3.21-2.3-6.03-4.46-8.28-6.41c-2.25-1.95-3.95-3.66-5.08-4.89
							c-1.13-1.23-1.71-1.95-1.77-1.91c-0.02,0.02,0.1,0.21,0.36,0.57c0.25,0.37,0.65,0.88,1.18,1.53c1.06,1.3,2.72,3.09,4.94,5.11
							c2.23,2.02,5.03,4.24,8.22,6.58c3.19,2.35,6.75,4.83,10.32,7.65c3.56,2.82,6.75,5.77,9.22,8.82c2.48,3.03,4.26,6.13,5.39,8.86
							c0.18,0.43,0.33,0.85,0.48,1.26c0.17-0.02,0.35-0.03,0.52-0.05C309.36,427.16,309.22,426.7,309.03,426.21z"/>
						<path class="st9" d="M282.81,421.58c-3.83-7.03-7.07-13.52-9.36-18.25c-1.09-2.27-2-4.15-2.7-5.6
							c-0.64-1.32-1.01-2.05-1.06-2.02c-0.05,0.02,0.23,0.79,0.78,2.15c0.56,1.36,1.39,3.32,2.47,5.71
							c2.17,4.79,5.33,11.34,9.17,18.39c1.3,2.39,2.59,4.68,3.85,6.85c0.29-0.01,0.57-0.01,0.86-0.02
							C285.53,426.51,284.18,424.1,282.81,421.58z"/>
						<path class="st9" d="M290.8,412.6c-6.33-6.19-11.59-12.25-15.26-16.75c-1.83-2.25-3.28-4.1-4.28-5.38
							c-1-1.28-1.56-1.98-1.61-1.95c-0.04,0.03,0.44,0.79,1.36,2.13c0.93,1.33,2.31,3.24,4.09,5.54c3.56,4.6,8.79,10.74,15.14,16.96
							c3.16,3.13,6.37,5.89,9.06,8.6c2.13,2.12,3.89,4.24,5.25,6.26c0.22-0.02,0.44-0.03,0.67-0.05c-1.36-2.18-3.18-4.46-5.4-6.72
							C297.13,418.48,293.94,415.71,290.8,412.6z"/>
						<path class="st9" d="M274.38,426.37c-1.33-4.01-2.23-7.87-3.08-11.38c-1.62-7.04-3.12-12.73-4.73-16.47
							c-1.54-3.76-2.88-5.59-2.88-5.59c-0.01,0.01,0.04,0.14,0.17,0.38c0.15,0.28,0.33,0.64,0.55,1.07
							c0.47,0.95,1.15,2.36,1.87,4.24c1.51,3.74,2.93,9.42,4.48,16.48c0.81,3.52,1.68,7.4,3,11.46c0.26,0.77,0.54,1.55,0.84,2.34
							c0.23,0,0.46,0,0.71,0C274.98,428.06,274.67,427.2,274.38,426.37z"/>
					</g>
					<g>
						<path class="st2" d="M314.68,414.29c0-0.01,0.08-0.01,0.24-0.02c0.16-0.01,0.39,0.01,0.7,0.03c0.61,0.05,1.51,0.15,2.66,0.32
							c2.29,0.37,5.63,0.85,9.62,2.13c0.99,0.36,1.99,0.76,3.01,1.32c0.5,0.3,1.01,0.65,1.37,1.19c0.38,0.54,0.45,1.26,0.28,1.9
							c-0.17,0.7-0.79,1.14-1.31,1.47c-0.53,0.35-1.12,0.67-1.72,0.92c-1.21,0.51-2.48,0.97-3.81,1.33
							c-5.3,1.47-11.25,2.63-17.55,3.38c-12.62,1.49-24.14,1.2-32.43,0.89c-4.15-0.16-7.5-0.36-9.82-0.5
							c-1.12-0.08-2.01-0.14-2.67-0.19c-0.28-0.02-0.51-0.04-0.69-0.06c-0.16-0.02-0.24-0.03-0.24-0.04c0-0.01,0.08-0.01,0.24-0.01
							c0.19,0,0.42,0.01,0.7,0.01c0.65,0.02,1.55,0.05,2.67,0.09c2.37,0.08,5.71,0.19,9.82,0.33c8.29,0.21,19.79,0.44,32.36-1.04
							c6.28-0.74,12.2-1.88,17.49-3.32c1.31-0.34,2.57-0.79,3.76-1.28c0.6-0.25,1.14-0.53,1.67-0.87c0.53-0.33,1-0.68,1.13-1.21
							c0.14-0.54,0.09-1.11-0.22-1.55c-0.29-0.45-0.75-0.79-1.22-1.07c-0.96-0.54-1.98-0.97-2.93-1.32
							c-3.91-1.31-7.25-1.85-9.52-2.28c-1.14-0.2-2.03-0.33-2.64-0.41C315,414.33,314.68,414.31,314.68,414.29z"/>
					</g>
				</g>
				<g>
					<path class="st5" d="M319.53,401.99c0.09,0.12-1.78,1.57-3.9,3.54c-2.13,1.96-3.72,3.71-3.84,3.61c-0.11-0.08,1.32-2,3.49-3.99
						C317.43,403.15,319.46,401.87,319.53,401.99z"/>
				</g>
				<g>
					<path class="st5" d="M319.09,409.88c-0.08,0.13-1.38-0.73-3.21-0.67c-1.83,0.02-3.1,0.93-3.18,0.8
						c-0.04-0.05,0.22-0.35,0.77-0.68c0.55-0.32,1.41-0.62,2.4-0.64c0.99-0.02,1.86,0.24,2.42,0.54
						C318.86,409.54,319.13,409.83,319.09,409.88z"/>
				</g>
			</g>
		</g>
	</g>
</g>
<g id="Shelves">
	<g>
		<g>
			<path class="st6" d="M137.69,203.48c-0.58,0.46-32.29,14.69-32.29,14.69s8.73,18.54,25.68,10.28
				C146.54,220.92,137.69,203.48,137.69,203.48z"/>
			<g>
				<path class="st6" d="M137.34,101.07c0.72,0,1.3,24.62,1.3,54.98c0,30.37-0.58,54.99-1.3,54.99c-0.72,0-1.3-24.61-1.3-54.99
					C136.03,125.69,136.62,101.07,137.34,101.07z"/>
			</g>
		</g>
		<g>
			<path class="st6" d="M114.77,175.34c-0.58,0.46-32.29,14.69-32.29,14.69s8.73,18.54,25.68,10.28
				C123.63,192.78,114.77,175.34,114.77,175.34z"/>
			<g>
				<path class="st6" d="M114.42,99.21c0.72,0,1.3,18.74,1.3,41.85c0,23.12-0.58,41.85-1.3,41.85c-0.72,0-1.3-18.73-1.3-41.85
					C113.12,117.95,113.7,99.21,114.42,99.21z"/>
			</g>
		</g>
		<g>
			<path class="st6" d="M87.02,147.59c-0.58,0.46-32.29,14.69-32.29,14.69s8.73,18.54,25.68,10.28
				C95.87,165.02,87.02,147.59,87.02,147.59z"/>
			<g>
				<path class="st6" d="M86.66,102.04c0.72,0,1.3,11.89,1.3,26.55c0,14.67-0.58,26.55-1.3,26.55c-0.72,0-1.3-11.89-1.3-26.55
					C85.36,113.93,85.94,102.04,86.66,102.04z"/>
			</g>
		</g>
		<g>
			<g>
				<circle class="st6" cx="175.06" cy="176.13" r="32.4"/>
				<polygon class="st6" points="173.85,147.36 171.31,105.7 183.25,105.7 179.94,147.36 				"/>
			</g>
			<g>
				<path class="st2" d="M188.69,198.86c0,0.01-0.07,0.06-0.21,0.15c-0.17,0.1-0.39,0.23-0.65,0.38c-0.29,0.16-0.64,0.38-1.08,0.6
					c-0.45,0.2-0.96,0.44-1.54,0.69c-2.33,0.98-5.96,1.98-10.52,1.94c-4.52-0.1-10.06-1.31-15.04-4.78c-2.47-1.73-4.77-4-6.54-6.77
					c-1.79-2.76-3.12-5.94-3.87-9.34c-0.7-3.41-0.78-6.86-0.27-10.11c0.49-3.25,1.66-6.27,3.22-8.85c3.14-5.2,7.7-8.57,11.79-10.5
					c4.15-1.9,7.87-2.47,10.4-2.52c0.63,0,1.19,0.01,1.69,0.01c0.49,0.02,0.9,0.08,1.23,0.1c0.31,0.03,0.55,0.06,0.75,0.08
					c0.17,0.02,0.26,0.04,0.25,0.05c0,0.01-0.09,0.01-0.26,0.01c-0.2-0.01-0.45-0.02-0.76-0.03c-0.33-0.01-0.74-0.05-1.23-0.05
					c-0.49,0.01-1.05,0.03-1.67,0.04c-2.51,0.11-6.17,0.74-10.25,2.65c-4.02,1.95-8.48,5.3-11.53,10.41
					c-1.51,2.54-2.65,5.49-3.12,8.69c-0.49,3.18-0.41,6.57,0.28,9.92c0.74,3.34,2.04,6.46,3.79,9.17c1.73,2.72,3.98,4.95,6.39,6.66
					c4.87,3.42,10.31,4.66,14.78,4.81c4.51,0.09,8.1-0.84,10.44-1.76c0.58-0.24,1.09-0.46,1.55-0.65c0.44-0.2,0.8-0.4,1.1-0.55
					c0.28-0.14,0.5-0.25,0.68-0.34C188.6,198.89,188.69,198.86,188.69,198.86z"/>
			</g>
		</g>
		<g>
			<polygon class="st6" points="45.16,51.79 56.63,93.29 105.22,93.29 116.7,51.79 			"/>
			<g>
				<path class="st2" d="M114.42,60.01c0,0.14-15,0.26-33.49,0.26c-18.5,0-33.49-0.12-33.49-0.26c0-0.14,14.99-0.26,33.49-0.26
					C99.43,59.75,114.42,59.87,114.42,60.01z"/>
			</g>
			<path class="st2" d="M123.33,62.49h-9.95l1.59-4.34h8.35c1.2,0,2.17,0.97,2.17,2.17l0,0C125.5,61.52,124.53,62.49,123.33,62.49z"
				/>
			<path class="st2" d="M38.45,62.49h9.95l-1.59-4.34h-8.35c-1.2,0-2.17,0.97-2.17,2.17l0,0C36.28,61.52,37.25,62.49,38.45,62.49z"
				/>
		</g>
		<rect x="32.88" y="92.72" class="st3" width="181.47" height="12.97"/>
	</g>
</g>
<g id="Kitchen_tools">
	<g>
		<path class="st3" d="M449.12,277.42c-2.77-1.08-5.89,0.29-6.98,3.06l-8.05,21.56l0,0l10.02,3.68l8.11-21.36
			C453.27,281.6,451.89,278.49,449.12,277.42z"/>
		<path class="st10" d="M448.9,284.24c0,1.27-1.03,2.3-2.3,2.3s-2.3-1.03-2.3-2.3c0-1.27,1.03-2.3,2.3-2.3
			S448.9,282.97,448.9,284.24z"/>
		<path class="st10" d="M443.2,298.38c0,1.27-1.03,2.3-2.3,2.3c-1.27,0-2.3-1.03-2.3-2.3c0-1.27,1.03-2.3,2.3-2.3
			C442.17,296.09,443.2,297.11,443.2,298.38z"/>
		<polygon class="st11" points="434.09,302.05 418.58,342.51 437.67,342.27 453.24,308.84 		"/>
		<g>
			<rect x="395.01" y="342.51" class="st3" width="53.5" height="61.53"/>
			<g>
				<path class="st12" d="M448.51,357.83c0,0.14-11.98,0.26-26.75,0.26c-14.78,0-26.75-0.12-26.75-0.26
					c0-0.14,11.97-0.26,26.75-0.26C436.53,357.57,448.51,357.69,448.51,357.83z"/>
			</g>
			<g>
				<path class="st12" d="M448.51,364.46c0,0.14-11.98,0.26-26.75,0.26c-14.78,0-26.75-0.12-26.75-0.26s11.97-0.26,26.75-0.26
					C436.53,364.2,448.51,364.31,448.51,364.46z"/>
			</g>
			<g>
				<path class="st12" d="M448.51,371.08c0,0.14-11.98,0.26-26.75,0.26c-14.78,0-26.75-0.12-26.75-0.26
					c0-0.14,11.97-0.26,26.75-0.26C436.53,370.82,448.51,370.94,448.51,371.08z"/>
			</g>
			<g>
				<path class="st12" d="M448.51,377.71c0,0.14-11.98,0.26-26.75,0.26c-14.78,0-26.75-0.12-26.75-0.26s11.97-0.26,26.75-0.26
					C436.53,377.45,448.51,377.56,448.51,377.71z"/>
			</g>
			<g>
				<path class="st12" d="M448.51,384.33c0,0.14-11.98,0.26-26.75,0.26c-14.78,0-26.75-0.12-26.75-0.26s11.97-0.26,26.75-0.26
					C436.53,384.07,448.51,384.19,448.51,384.33z"/>
			</g>
			<g>
				<path class="st12" d="M448.51,390.95c0,0.14-11.98,0.26-26.75,0.26c-14.78,0-26.75-0.12-26.75-0.26s11.97-0.26,26.75-0.26
					C436.53,390.69,448.51,390.81,448.51,390.95z"/>
			</g>
		</g>
		<path class="st6" d="M363.57,308.64l35.77,2.86c0,0,1.02-17.37-15.74-19.21C366.84,290.45,363.57,308.64,363.57,308.64z"/>
		<g>
			<path class="st6" d="M409.15,342.51c-0.68,0.24-4.4-8.68-8.3-19.91c-3.91-11.24-6.52-20.53-5.84-20.77
				c0.68-0.24,4.39,8.68,8.3,19.91C407.21,332.97,409.83,342.27,409.15,342.51z"/>
		</g>
	</g>
</g>
<g id="Food">
	<g>
		<g>
			<path class="st6" d="M411.29,460.34c0,0.02-0.24,0.07-0.71,0.15c-0.52,0.09-1.2,0.2-2.05,0.34c-0.45,0.07-0.95,0.15-1.48,0.23
				c-0.54,0.07-1.14,0.11-1.78,0.18c-1.28,0.11-2.73,0.3-4.34,0.32c-0.81,0.03-1.65,0.06-2.53,0.09c-0.88,0.02-1.8-0.03-2.75-0.04
				c-1.9,0-3.92-0.19-6.05-0.35c-4.24-0.45-8.89-1.24-13.65-2.52c-4.75-1.33-9.15-3.02-13.03-4.79c-1.92-0.94-3.75-1.81-5.39-2.78
				c-0.82-0.47-1.64-0.9-2.38-1.37c-0.74-0.47-1.45-0.93-2.13-1.37c-1.38-0.84-2.53-1.74-3.57-2.49c-0.52-0.38-1-0.72-1.44-1.06
				c-0.42-0.35-0.81-0.67-1.16-0.96c-0.66-0.55-1.19-1-1.59-1.34c-0.36-0.31-0.54-0.48-0.53-0.49c0.01-0.01,0.22,0.13,0.6,0.41
				c0.42,0.32,0.96,0.74,1.65,1.26c0.36,0.28,0.75,0.59,1.18,0.92c0.44,0.33,0.94,0.65,1.46,1.02c1.06,0.72,2.22,1.6,3.6,2.41
				c0.68,0.42,1.4,0.87,2.14,1.33c0.75,0.46,1.56,0.87,2.38,1.33c1.63,0.95,3.47,1.79,5.38,2.72c3.87,1.74,8.24,3.4,12.97,4.72
				c4.73,1.27,9.34,2.07,13.56,2.55c2.12,0.18,4.12,0.39,6.01,0.4c0.94,0.02,1.86,0.08,2.73,0.07c0.88-0.02,1.72-0.04,2.52-0.05
				c1.61,0,3.05-0.16,4.33-0.24c0.64-0.05,1.23-0.08,1.77-0.14c0.54-0.07,1.03-0.13,1.48-0.19c0.85-0.1,1.54-0.18,2.06-0.24
				C411.04,460.34,411.29,460.33,411.29,460.34z"/>
		</g>
		<path class="st6" d="M368.71,456.4c-7.51-1-17.3,1.91-22.92,6.99C353.75,462.32,361.52,459.95,368.71,456.4"/>
		<path class="st6" d="M369.09,456.49c2.75-7.06-1.31-17-1.31-17C366.99,438.15,367.34,448.66,369.09,456.49"/>
		<path class="st6" d="M357.25,450.89c2.01-5.18-0.91-12.46-0.91-12.46C355.78,437.45,356.01,445.16,357.25,450.89"/>
		<path class="st6" d="M379.69,458.95c2.01-5.18-0.91-12.46-0.91-12.46C378.21,445.51,378.44,453.22,379.69,458.95"/>
		<path class="st6" d="M357.48,451c-5.59-0.74-12.87,1.42-17.05,5.2C346.34,455.41,352.13,453.65,357.48,451"/>
		<path class="st6" d="M380.83,459.79c-7.93,0.11-17.63,4.61-22.68,10.72C366.23,468.2,373.92,464.57,380.83,459.79"/>
	</g>
	<g>
		<path class="st3" d="M411.05,421.92c-3.21-4.83-9.18-7.67-14.96-7.13c-5.77,0.54-11.11,4.44-13.37,9.78
			c-1.91,4.5-1.66,9.76,0.23,14.26c1.88,4.51,5.3,8.27,9.34,11.02c10.57,7.2,25.9,6.87,35.73-1.31c3.65-3.04,6.58-7.19,7.25-11.89
			c0.78-5.43-1.76-11.21-6.29-14.31c-4.53-3.1-10.83-3.38-15.62-0.7"/>
		<path class="st6" d="M411.09,421.9c-0.62-2.58-3.35-4.46-5.98-4.12c1.18,1.4,2.36,2.81,3.54,4.21c-1.92,0.24-3.66,1.6-4.35,3.41
			c-0.17,0.43-0.22,1.04,0.2,1.25c0.27,0.14,0.6,0.03,0.89-0.09c1.43-0.59,2.86-1.19,4.3-1.78c0.29,2.39,1.18,4.7,2.56,6.67
			c0.98-2.1,1.53-4.4,1.62-6.71c1.58,0.7,3.17,1.4,4.75,2.1c-0.37-1.36-1.16-2.6-2.23-3.52c1.4-0.27,2.76-0.8,3.97-1.55
			c0.37-0.23,0.77-0.62,0.6-1.02c-0.13-0.31-0.51-0.39-0.84-0.42c-3.12-0.3-6.32,0.36-9.05,1.88"/>
		<path class="st6" d="M410.78,423.68c0.74-4.78,0.33-9.74-1.18-14.33c1.13-0.25,2.53-0.42,3.26,0.48c0.42,0.52,0.47,1.24,0.48,1.91
			c0.06,4.52-0.81,9.05-2.54,13.22"/>
		<g>
			<path class="st12" d="M387.72,440.89c-0.02,0.02-0.3-0.23-0.74-0.74c-0.44-0.51-1.02-1.31-1.59-2.39
				c-1.14-2.12-2.12-5.53-1.51-9.25c0.62-3.72,2.64-6.63,4.41-8.27c0.88-0.83,1.69-1.41,2.27-1.75c0.58-0.34,0.93-0.49,0.94-0.47
				c0.06,0.09-1.29,0.78-2.96,2.48c-1.66,1.67-3.56,4.52-4.15,8.09c-0.59,3.58,0.29,6.89,1.33,9
				C386.75,439.74,387.8,440.82,387.72,440.89z"/>
		</g>
		<g>
			<path class="st12" d="M392.49,444.49c-0.05,0.13-0.8-0.03-1.55-0.57c-0.76-0.54-1.15-1.2-1.05-1.28c0.11-0.1,0.65,0.37,1.35,0.86
				C391.93,443.99,392.54,444.35,392.49,444.49z"/>
		</g>
	</g>
	<g>
		<g>
			<path class="st6" d="M191.53,367.05c-0.43,0.1,2.79,16.32,2.79,16.32h8.27l3.65-15.67C206.23,367.7,200.11,365.12,191.53,367.05z
				"/>
			<g>
				<path class="st9" d="M186.55,458.36c0,0-12.16-34.06-10.46-43.3c1.7-9.24,5.35-11.19,8.27-14.11c2.92-2.92,5.35-5.35,6.08-8.27
					c0.73-2.92,0-14.59,0-14.59s-2.19-3.41-1.46-4.62c0.73-1.22,18.73,0,18.73,0s0,1.95-1.46,4.14c0,0-0.49,13.62,0.24,15.08
					c0.73,1.46,11.92,13.87,13.62,20.19c1.7,6.32-6.72,45.49-6.72,45.49H186.55z"/>
				<g>
					<path class="st2" d="M186.55,458.36c0,0,0.16-0.01,0.47-0.02c0.33,0,0.78-0.01,1.37-0.02c1.22-0.01,2.99-0.02,5.28-0.04
						c4.61-0.02,11.3-0.05,19.73-0.09l-0.16,0.13c1.04-4.95,2.15-10.56,3.29-16.74c1.12-6.18,2.33-12.91,3.15-20.14
						c0.19-1.81,0.37-3.65,0.41-5.51c0.02-0.93,0.01-1.88-0.16-2.77c-0.21-0.89-0.58-1.77-0.99-2.63c-1.71-3.41-4.06-6.62-6.49-9.82
						c-1.22-1.6-2.5-3.19-3.79-4.79c-0.64-0.81-1.3-1.6-1.93-2.45c-0.16-0.2-0.31-0.44-0.46-0.68c-0.11-0.28-0.18-0.58-0.21-0.83
						c-0.08-0.54-0.11-1.06-0.14-1.59c-0.18-4.21-0.06-8.47,0.07-12.8l0-0.07l0.04-0.06c0.19-0.29,0.39-0.62,0.56-0.96
						c0.48-0.95,0.81-2.01,0.86-3.03l0.24,0.26c-4.1-0.26-8.16-0.47-12.13-0.53c-1.97-0.01-3.98-0.06-5.84,0.23
						c-0.21,0.03-0.49,0.13-0.51,0.17c-0.07,0.11-0.13,0.33-0.12,0.53c0.01,0.43,0.14,0.88,0.3,1.32c0.33,0.87,0.78,1.72,1.26,2.5
						l0.04,0.06l0,0.06c0.18,3.11,0.3,6.17,0.32,9.18c0,1.51-0.01,3-0.17,4.49c-0.14,1.52-0.81,2.92-1.62,4.13
						c-0.83,1.21-1.79,2.28-2.77,3.31c-0.99,1.01-1.96,2.01-2.98,2.95c-1.02,0.93-2.02,1.84-2.88,2.85
						c-0.86,1.01-1.58,2.11-2.14,3.27c-1.13,2.32-1.79,4.79-2.19,7.19c-0.16,1.19-0.13,2.4-0.04,3.57c0.08,1.18,0.24,2.33,0.41,3.46
						c0.72,4.52,1.76,8.64,2.73,12.36c1.99,7.44,3.88,13.3,5.18,17.33c0.66,1.99,1.16,3.54,1.51,4.61c0.17,0.51,0.3,0.9,0.39,1.19
						C186.52,458.22,186.55,458.36,186.55,458.36s-0.06-0.13-0.16-0.39c-0.1-0.28-0.25-0.67-0.43-1.18
						c-0.37-1.04-0.92-2.58-1.6-4.58c-1.35-4.01-3.28-9.85-5.32-17.3c-1-3.73-2.06-7.84-2.8-12.39c-0.17-1.14-0.34-2.3-0.42-3.49
						c-0.1-1.19-0.14-2.42,0.03-3.66c0.4-2.45,1.06-4.93,2.21-7.32c0.58-1.19,1.31-2.33,2.19-3.37c0.88-1.04,1.9-1.97,2.91-2.9
						c1-0.93,1.98-1.93,2.96-2.94c0.97-1.02,1.92-2.07,2.71-3.25c0.79-1.17,1.42-2.49,1.54-3.92c0.15-1.44,0.16-2.93,0.16-4.43
						c-0.02-3-0.15-6.05-0.33-9.15l0.04,0.12c-0.51-0.82-0.97-1.67-1.32-2.6c-0.17-0.47-0.32-0.95-0.33-1.49
						c0-0.27,0.03-0.56,0.22-0.85c0.33-0.31,0.56-0.28,0.82-0.36c1.99-0.31,3.95-0.25,5.95-0.25c3.99,0.06,8.04,0.27,12.16,0.53
						l0.26,0.02l-0.01,0.24c-0.06,1.17-0.41,2.25-0.92,3.27c-0.18,0.36-0.39,0.7-0.59,1.01l0.04-0.13
						c-0.12,4.31-0.25,8.58-0.07,12.75c0.03,0.52,0.06,1.04,0.14,1.54c0.03,0.26,0.09,0.48,0.16,0.68c0.13,0.2,0.25,0.4,0.42,0.61
						c0.61,0.82,1.27,1.63,1.91,2.43c1.29,1.61,2.56,3.2,3.79,4.81c2.44,3.22,4.79,6.43,6.53,9.92c0.42,0.88,0.79,1.78,1.02,2.74
						c0.19,0.98,0.19,1.93,0.17,2.88c-0.04,1.89-0.22,3.74-0.42,5.55c-0.85,7.25-2.08,13.98-3.22,20.16
						c-1.16,6.17-2.31,11.78-3.37,16.73l-0.03,0.13l-0.13,0c-8.46-0.04-15.18-0.07-19.81-0.09c-2.28-0.02-4.04-0.03-5.25-0.04
						c-0.58-0.01-1.02-0.02-1.35-0.02C186.7,458.37,186.55,458.36,186.55,458.36z"/>
				</g>
			</g>
			<path class="st3" d="M211.07,454.83c2.78-9.8,5.26-23.61,6.11-34.77c0.1-1.34,0.1-2.89-0.91-3.78c-1.24-1.08-3.14-0.5-4.71,0
				c-4.59,1.46-9.55,1.73-14.27,0.76c-4.61-0.95-9.18-3.06-13.83-2.29c-1.17,0.19-2.39,0.63-3.05,1.61
				c-0.75,1.12-0.57,2.6-0.36,3.93c1.82,11.43,5.55,24.58,8.59,34.54H211.07z"/>
		</g>
		<g>
			<path class="st12" d="M214.12,417.69c0.02,0.02-0.28,0.37-0.88,0.95c-0.6,0.58-1.52,1.37-2.75,2.22
				c-2.44,1.7-6.28,3.55-10.84,4.12c-4.56,0.57-8.74-0.27-11.53-1.31c-1.4-0.52-2.49-1.05-3.21-1.47c-0.72-0.41-1.1-0.68-1.09-0.71
				c0.05-0.09,1.62,0.89,4.42,1.82c2.78,0.94,6.87,1.7,11.34,1.14c4.46-0.56,8.24-2.31,10.7-3.91
				C212.77,418.95,214.05,417.61,214.12,417.69z"/>
		</g>
	</g>
</g>
</svg>
